<?xml version="1.0" encoding="UTF-8" standalone="no" ?>
<!DOCTYPE svg PUBLIC "-//W3C//DTD SVG 1.1//EN" "http://www.w3.org/Graphics/SVG/1.1/DTD/svg11.dtd">
<svg xmlns="http://www.w3.org/2000/svg" xmlns:xlink="http://www.w3.org/1999/xlink" version="1.1" width="640" height="640" viewBox="0 0 640 640" xml:space="preserve">
<desc>Created with Fabric.js 5.3.0</desc>
<defs>
</defs>
<g transform="matrix(0.1505699079 0 0 2.3822008227 317.6409378884 325.3056757376)" id="MGONO-aOvm_1zr9brZ9Lt"  >
<path style="stroke: rgb(80,34,104); stroke-width: 0; stroke-dasharray: none; stroke-linecap: butt; stroke-dashoffset: 0; stroke-linejoin: miter; stroke-miterlimit: 4; fill: #955ab5; fill-rule: nonzero; opacity: 1;"  transform=" translate(0, 0)" d="M -100.53476 -94.49491 C -100.53476 -97.83063 -57.75206000000001 -100.53476 -4.976920000000007 -100.53476 L 100.53475999999999 -100.53476 L 100.53475999999999 94.49491 L 100.53475999999999 94.49491 C 100.53475999999999 97.83063 57.75205999999999 100.53476 4.976919999999993 100.53476 L -100.53476 100.53476 z" stroke-linecap="round" />
</g>
<g transform="matrix(0.150569908 0 0 2.3095437038 376.9170023923 257.4345275987)" id="dnrYR_VwWERHppRbHmlDY"  >
<path style="stroke: rgb(80,34,104); stroke-width: 0; stroke-dasharray: none; stroke-linecap: butt; stroke-dashoffset: 0; stroke-linejoin: miter; stroke-miterlimit: 4; fill: #955ab5; fill-rule: nonzero; opacity: 1;"  transform=" translate(0, 0)" d="M -100.53476 -94.3049 C -100.53476 -97.74556 -57.75206000000001 -100.53476 -4.976920000000007 -100.53476 L 100.53475999999999 -100.53476 L 100.53475999999999 94.3049 L 100.53475999999999 94.3049 C 100.53475999999999 97.74556 57.75205999999999 100.53476 4.976919999999993 100.53476 L -100.53476 100.53476 z" stroke-linecap="round" />
</g>
<g transform="matrix(0.150569908 0 0 2.3095437039 258.3648733844 257.4345276043)" id="Zh4umDfQI2vHPzc20xEoU"  >
<path style="stroke: rgb(80,34,104); stroke-width: 0; stroke-dasharray: none; stroke-linecap: butt; stroke-dashoffset: 0; stroke-linejoin: miter; stroke-miterlimit: 4; fill: #955ab5; fill-rule: nonzero; opacity: 1;"  transform=" translate(0, 0)" d="M -100.53476 -94.3049 C -100.53476 -97.74556 -57.75206000000001 -100.53476 -4.976920000000007 -100.53476 L 100.53475999999999 -100.53476 L 100.53475999999999 94.3049 L 100.53475999999999 94.3049 C 100.53475999999999 97.74556 57.75205999999999 100.53476 4.976919999999993 100.53476 L -100.53476 100.53476 z" stroke-linecap="round" />
</g>
<g transform="matrix(0.150569908 0 0 2.1348120376 436.1930668963 215.0506340087)" id="9KYSqLDjFx2aoYb5qyRLO"  >
<path style="stroke: rgb(80,34,104); stroke-width: 0; stroke-dasharray: none; stroke-linecap: butt; stroke-dashoffset: 0; stroke-linejoin: miter; stroke-miterlimit: 4; fill: #955ab5; fill-rule: nonzero; opacity: 1;"  transform=" translate(0, 0)" d="M -100.53476 -93.795 C -100.53476 -97.51727 -57.75206000000001 -100.53477000000001 -4.976920000000007 -100.53477000000001 L 100.53475999999999 -100.53477000000001 L 100.53475999999999 93.79498999999998 L 100.53475999999999 93.79498999999998 C 100.53475999999999 97.51725999999998 57.75205999999999 100.53475999999998 4.976919999999993 100.53475999999998 L -100.53476 100.53475999999998 z" stroke-linecap="round" />
</g>
<g transform="matrix(0.150569908 0 0 2.1348120373 199.0888088804 215.0506375933)" id="sUwKsKR5_WXOTvmo6HDOR"  >
<path style="stroke: rgb(80,34,104); stroke-width: 0; stroke-dasharray: none; stroke-linecap: butt; stroke-dashoffset: 0; stroke-linejoin: miter; stroke-miterlimit: 4; fill: #955ab5; fill-rule: nonzero; opacity: 1;"  transform=" translate(0, 0)" d="M -100.53476 -93.795 C -100.53476 -97.51727 -57.75206000000001 -100.53477000000001 -4.976920000000007 -100.53477000000001 L 100.53475999999999 -100.53477000000001 L 100.53475999999999 93.79498999999998 L 100.53475999999999 93.79498999999998 C 100.53475999999999 97.51725999999998 57.75205999999999 100.53475999999998 4.976919999999993 100.53475999999998 L -100.53476 100.53475999999998 z" stroke-linecap="round" />
</g>
<g transform="matrix(0.150569908 0 0 1.7811853586 495.4691314003 179.4988625473)" id="kvOI8bX4m-OgtFBhBB4Ej"  >
<path style="stroke: rgb(80,34,104); stroke-width: 0; stroke-dasharray: none; stroke-linecap: butt; stroke-dashoffset: 0; stroke-linejoin: miter; stroke-miterlimit: 4; fill: #955ab5; fill-rule: nonzero; opacity: 1;"  transform=" translate(0, 0)" d="M -100.53476 -92.45692 C -100.53476 -96.91819 -57.75206000000001 -100.53475999999999 -4.976920000000007 -100.53475999999999 L 100.53475999999999 -100.53475999999999 L 100.53475999999999 92.45692000000001 L 100.53475999999999 92.45692000000001 C 100.53475999999999 96.91819000000001 57.75205999999999 100.53476 4.976919999999993 100.53476 L -100.53476 100.53476 z" stroke-linecap="round" />
</g>
<g transform="matrix(0.150569908 0 0 1.3118956655 559.016669493 169.1263136912)" id="vgy7tmUyDlfhi6ivYkNj9"  >
<path style="stroke: rgb(80,34,104); stroke-width: 0; stroke-dasharray: none; stroke-linecap: butt; stroke-dashoffset: 0; stroke-linejoin: miter; stroke-miterlimit: 4; fill: #955ab5; fill-rule: nonzero; opacity: 1;"  transform=" translate(0, 0)" d="M -100.53476 -89.56732 C -100.53476 -95.62447 -57.75206000000001 -100.53475999999999 -4.976920000000007 -100.53475999999999 L 100.53475999999999 -100.53475999999999 L 100.53475999999999 89.56732000000001 L 100.53475999999999 89.56732000000001 C 100.53475999999999 95.62447 57.75205999999999 100.53476 4.976919999999993 100.53476 L -100.53476 100.53476 z" stroke-linecap="round" />
</g>
<g transform="matrix(0.150569908 0 0 1.3118956655 76.2652061116 169.1263114971)" id="9udTMN5m1dm2QSWdwAIHA"  >
<path style="stroke: rgb(80,34,104); stroke-width: 0; stroke-dasharray: none; stroke-linecap: butt; stroke-dashoffset: 0; stroke-linejoin: miter; stroke-miterlimit: 4; fill: #955ab5; fill-rule: nonzero; opacity: 1;"  transform=" translate(0, 0)" d="M -100.53476 -89.56732 C -100.53476 -95.62447 -57.75206000000001 -100.53475999999999 -4.976920000000007 -100.53475999999999 L 100.53475999999999 -100.53475999999999 L 100.53475999999999 89.56732000000001 L 100.53475999999999 89.56732000000001 C 100.53475999999999 95.62447 57.75205999999999 100.53476 4.976919999999993 100.53476 L -100.53476 100.53476 z" stroke-linecap="round" />
</g>
<g transform="matrix(0.150569908 0 0 0.7482943709 15.5653170493 161.041280008)" id="Ayz4IAZLXcgSJGuNpOzSe"  >
<path style="stroke: rgb(80,34,104); stroke-width: 0; stroke-dasharray: none; stroke-linecap: butt; stroke-dashoffset: 0; stroke-linejoin: miter; stroke-miterlimit: 4; fill: #955ab5; fill-rule: nonzero; opacity: 1;"  transform=" translate(0, 0)" d="M -100.53476 -81.30685 C -100.53476 -91.92613 -57.75206000000001 -100.53476 -4.976920000000007 -100.53476 L 100.53475999999999 -100.53476 L 100.53475999999999 81.30686 L 100.53475999999999 81.30686 C 100.53475999999999 91.92614 57.75205999999999 100.53477000000001 4.976919999999993 100.53477000000001 L -100.53476 100.53477000000001 z" stroke-linecap="round" />
</g>
<g transform="matrix(0.150569908 0 0 0.7482943709 623.9130940951 161.0412825014)" id="inURT0dnzkYU4mNtLqWYm"  >
<path style="stroke: rgb(80,34,104); stroke-width: 0; stroke-dasharray: none; stroke-linecap: butt; stroke-dashoffset: 0; stroke-linejoin: miter; stroke-miterlimit: 4; fill: #955ab5; fill-rule: nonzero; opacity: 1;"  transform=" translate(0, 0)" d="M -100.53476 -81.30685 C -100.53476 -91.92613 -57.75206000000001 -100.53476 -4.976920000000007 -100.53476 L 100.53475999999999 -100.53476 L 100.53475999999999 81.30686 L 100.53475999999999 81.30686 C 100.53475999999999 91.92614 57.75205999999999 100.53477000000001 4.976919999999993 100.53477000000001 L -100.53476 100.53477000000001 z" stroke-linecap="round" />
</g>
<g transform="matrix(0.150569908 0 0 1.7811853734 139.8127443764 179.4988640375)" id="TzPGMtWIEQxDUXsdfMrqi"  >
<path style="stroke: rgb(80,34,104); stroke-width: 0; stroke-dasharray: none; stroke-linecap: butt; stroke-dashoffset: 0; stroke-linejoin: miter; stroke-miterlimit: 4; fill: #955ab5; fill-rule: nonzero; opacity: 1;"  transform=" translate(0, 0)" d="M -100.53476 -92.45692 C -100.53476 -96.91819 -57.75206000000001 -100.53475999999999 -4.976920000000007 -100.53475999999999 L 100.53475999999999 -100.53475999999999 L 100.53475999999999 92.45692000000001 L 100.53475999999999 92.45692000000001 C 100.53475999999999 96.91819000000001 57.75205999999999 100.53476 4.976919999999993 100.53476 L -100.53476 100.53476 z" stroke-linecap="round" />
</g>
</svg>