<?xml version="1.0" encoding="UTF-8" standalone="no" ?>
<!DOCTYPE svg PUBLIC "-//W3C//DTD SVG 1.1//EN" "http://www.w3.org/Graphics/SVG/1.1/DTD/svg11.dtd">
<svg xmlns="http://www.w3.org/2000/svg" xmlns:xlink="http://www.w3.org/1999/xlink" version="1.1" width="1200" height="1200" viewBox="0 0 1200 1200" xml:space="preserve">
<desc>Created with Fabric.js 5.3.0</desc>
<defs>
</defs>
<g transform="matrix(14.7031248504 0 0 14.7031248504 600 600)" id="Hj7T93X204AnhGkr_V-nS"  >
<path style="stroke: rgb(229,57,230); stroke-width: 0; stroke-dasharray: none; stroke-linecap: butt; stroke-dashoffset: 0; stroke-linejoin: miter; stroke-miterlimit: 4; fill: rgb(0,0,0); fill-rule: nonzero; opacity: 1;"  transform=" translate(0, 0)" d="M 0 -40.80765 C 22.52582 -40.80765 40.80765 -22.525820000000003 40.80765 0 C 40.80765 22.52582 22.525820000000003 40.80765 0 40.80765 C -22.52582 40.80765 -40.80765 22.525820000000003 -40.80765 0 C -40.80765 -22.52582 -22.525820000000003 -40.80765 0 -40.80765 z" stroke-linecap="round" />
</g>
<g transform="matrix(0.2750315349 0 0 1.3051220121 1032.349770624 496.8302106757)" id="inURT0dnzkYU4mNtLqWYm"  >
<path style="stroke: rgb(77,162,119); stroke-width: 0; stroke-dasharray: none; stroke-linecap: butt; stroke-dashoffset: 0; stroke-linejoin: miter; stroke-miterlimit: 4; fill: rgb(222,160,255); fill-rule: nonzero; opacity: 1;"  transform=" translate(0, -0.000005)" d="M -100.53476 -80.53691 C -100.53476 -91.58142000000001 -58.04798 -100.53476 -5.637889999999999 -100.53476 L 5.6378900000000005 -100.53476 L 5.6378900000000005 -100.53476 C 58.047979999999995 -100.53476 100.53476 -91.58142000000001 100.53476 -80.53691 L 100.53476 80.53691999999998 L 100.53476 80.53691999999998 C 100.53476 91.58142999999998 58.04798 100.53476999999998 5.637889999999999 100.53476999999998 L -5.6378900000000005 100.53476999999998 L -5.6378900000000005 100.53476999999998 C -58.047979999999995 100.53476999999998 -100.53476 91.58142999999998 -100.53476 80.53691999999998 z" stroke-linecap="round" />
</g>
<g transform="matrix(0.2750315349 0 0 2.3691377561 945.8798166367 508.7229719159)" id="vgy7tmUyDlfhi6ivYkNj9"  >
<path style="stroke: rgb(77,162,119); stroke-width: 0; stroke-dasharray: none; stroke-linecap: butt; stroke-dashoffset: 0; stroke-linejoin: miter; stroke-miterlimit: 4; fill: rgb(222,160,255); fill-rule: nonzero; opacity: 1;"  transform=" translate(0, -0.000005)" d="M -100.53476 -89.60794 C -100.53476 -95.64265 -58.3939 -100.53476 -6.410520000000005 -100.53476 L 6.410519999999995 -100.53476 L 6.410519999999995 -100.53476 C 58.39389999999999 -100.53476 100.53475999999999 -95.64266 100.53475999999999 -89.60794000000001 L 100.53475999999999 89.60794999999999 L 100.53475999999999 89.60794999999999 C 100.53475999999999 95.64265999999999 58.39389999999999 100.53476999999998 6.410519999999991 100.53476999999998 L -6.410520000000009 100.53476999999998 L -6.410520000000009 100.53476999999998 C -58.3939 100.53476999999998 -100.53476 95.64266999999998 -100.53476 89.60794999999999 z" stroke-linecap="round" />
</g>
<g transform="matrix(0.2750315349 0 0 3.0111280313 859.4098626494 537.8441670673)" id="kvOI8bX4m-OgtFBhBB4Ej"  >
<path style="stroke: rgb(77,162,119); stroke-width: 0; stroke-dasharray: none; stroke-linecap: butt; stroke-dashoffset: 0; stroke-linejoin: miter; stroke-miterlimit: 4; fill: rgb(222,160,255); fill-rule: nonzero; opacity: 1;"  transform=" translate(0.000005, -0.000005)" d="M -100.53476 -91.87472 C -100.53476 -96.65753 -58.08567000000001 -100.53475999999999 -5.722070000000002 -100.53475999999999 L 5.722059999999997 -100.53475999999999 L 5.722059999999997 -100.53475999999999 C 58.08567 -100.53475999999999 100.53475 -96.65753 100.53475 -91.87472 L 100.53475 91.87473 L 100.53475 91.87473 C 100.53475 96.65754 58.085660000000004 100.53477 5.722059999999999 100.53477 L -5.72207 100.53477 L -5.72207 100.53477 C -58.08568 100.53477 -100.53476 96.65754 -100.53476 91.87473 z" stroke-linecap="round" />
</g>
<g transform="matrix(0.2750315349 0 0 3.3471096354 772.9399086621 593.993246504)" id="9KYSqLDjFx2aoYb5qyRLO"  >
<path style="stroke: rgb(77,162,119); stroke-width: 0; stroke-dasharray: none; stroke-linecap: butt; stroke-dashoffset: 0; stroke-linejoin: miter; stroke-miterlimit: 4; fill: rgb(222,160,255); fill-rule: nonzero; opacity: 1;"  transform=" translate(0, 0.000005)" d="M -100.53476 -92.34209 C -100.53476 -96.86678 -55.895700000000005 -100.53476 -0.8306299999999993 -100.53476 L 0.8306300000000006 -100.53476 L 0.8306300000000006 -100.53476 C 55.8957 -100.53476 100.53476 -96.86677 100.53476 -92.34209000000001 L 100.53476 92.34207999999998 L 100.53476 92.34207999999998 C 100.53476 96.86676999999997 55.895700000000005 100.53474999999997 0.8306299999999993 100.53474999999997 L -0.8306300000000006 100.53474999999997 L -0.8306300000000006 100.53474999999997 C -55.8957 100.53474999999997 -100.53476 96.86675999999997 -100.53476 92.34207999999998 z" stroke-linecap="round" />
</g>
<g transform="matrix(0.2750315349 0 0 3.5232733004 686.4699546749 656.446316464)" id="dnrYR_VwWERHppRbHmlDY"  >
<path style="stroke: rgb(77,162,119); stroke-width: 0; stroke-dasharray: none; stroke-linecap: butt; stroke-dashoffset: 0; stroke-linejoin: miter; stroke-miterlimit: 4; fill: rgb(222,160,255); fill-rule: nonzero; opacity: 1;"  transform=" translate(0, 0)" d="M -100.53476 -92.79707 C -100.53476 -97.07048 -56.155800000000006 -100.53476 -1.4115800000000007 -100.53476 L 1.4115799999999994 -100.53476 L 1.4115799999999994 -100.53476 C 56.1558 -100.53476 100.53476 -97.07048 100.53476 -92.79707 L 100.53476 92.79707 L 100.53476 92.79707 C 100.53476 97.07048 56.155800000000006 100.53476 1.4115800000000007 100.53476 L -1.4115799999999994 100.53476 L -1.4115799999999994 100.53476 C -56.1558 100.53476 -100.53476 97.07048 -100.53476 92.79707 z" stroke-linecap="round" />
</g>
<g transform="matrix(0.2750315349 0 0 3.4201870719 600.0000006876 746.9036715983)" id="MGONO-aOvm_1zr9brZ9Lt"  >
<path style="stroke: rgb(77,162,119); stroke-width: 0; stroke-dasharray: none; stroke-linecap: butt; stroke-dashoffset: 0; stroke-linejoin: miter; stroke-miterlimit: 4; fill: rgb(222,160,255); fill-rule: nonzero; opacity: 1;"  transform=" translate(0, 0)" d="M -100.53476 -92.49671 C -100.53476 -96.93599999999999 -55.781960000000005 -100.53475999999999 -0.5765900000000101 -100.53475999999999 L 0.5765899999999899 -100.53475999999999 L 0.5765899999999899 -100.53475999999999 C 55.78195999999999 -100.53475999999999 100.53475999999999 -96.93599999999999 100.53475999999999 -92.49671 L 100.53475999999999 92.49671 L 100.53475999999999 92.49671 C 100.53475999999999 96.93599999999999 55.78195999999999 100.53475999999999 0.5765899999999959 100.53475999999999 L -0.5765900000000042 100.53475999999999 L -0.5765900000000042 100.53475999999999 C -55.781960000000005 100.53475999999999 -100.53476 96.93599999999999 -100.53476 92.49671 z" stroke-linecap="round" />
</g>
<g transform="matrix(0.2750315349 0 0 3.5232733004 513.5300467003 656.446316464)" id="Zh4umDfQI2vHPzc20xEoU"  >
<path style="stroke: rgb(77,162,119); stroke-width: 0; stroke-dasharray: none; stroke-linecap: butt; stroke-dashoffset: 0; stroke-linejoin: miter; stroke-miterlimit: 4; fill: rgb(222,160,255); fill-rule: nonzero; opacity: 1;"  transform=" translate(0, 0)" d="M -100.53476 -92.77516 C -100.53476 -97.06067 -56.03013000000001 -100.53476 -1.1308800000000048 -100.53476 L 1.1308799999999954 -100.53476 L 1.1308799999999954 -100.53476 C 56.03013 -100.53476 100.53475999999999 -97.06067 100.53475999999999 -92.77516 L 100.53475999999999 92.77516 L 100.53475999999999 92.77516 C 100.53475999999999 97.06067 56.03012999999999 100.53476 1.1308799999999906 100.53476 L -1.1308800000000097 100.53476 L -1.1308800000000097 100.53476 C -56.030130000000014 100.53476 -100.53476 97.06067 -100.53476 92.77516 z" stroke-linecap="round" />
</g>
<g transform="matrix(0.2750315349 0 0 3.3471096354 427.060092713 593.993246504)" id="sUwKsKR5_WXOTvmo6HDOR"  >
<path style="stroke: rgb(77,162,119); stroke-width: 0; stroke-dasharray: none; stroke-linecap: butt; stroke-dashoffset: 0; stroke-linejoin: miter; stroke-miterlimit: 4; fill: rgb(222,160,255); fill-rule: nonzero; opacity: 1;"  transform=" translate(0.000005, -0.000005)" d="M -100.53476 -92.30673 C -100.53476 -96.85094000000001 -55.70308000000001 -100.53476 -0.40040000000000475 -100.53476 L 0.40038999999999525 -100.53476 L 0.40038999999999525 -100.53476 C 55.70307 -100.53476 100.53475 -96.85095000000001 100.53475 -92.30673 L 100.53475 92.30674 L 100.53475 92.30674 C 100.53475 96.85095000000001 55.703070000000004 100.53477000000001 0.4003900000000016 100.53477000000001 L -0.4003999999999984 100.53477000000001 L -0.4003999999999984 100.53477000000001 C -55.70308 100.53477000000001 -100.53476 96.85096000000001 -100.53476 92.30674 z" stroke-linecap="round" />
</g>
<g transform="matrix(0.2750315349 0 0 3.0111280313 340.5901387257 537.8441670673)" id="TzPGMtWIEQxDUXsdfMrqi"  >
<path style="stroke: rgb(77,162,119); stroke-width: 0; stroke-dasharray: none; stroke-linecap: butt; stroke-dashoffset: 0; stroke-linejoin: miter; stroke-miterlimit: 4; fill: rgb(222,160,255); fill-rule: nonzero; opacity: 1;"  transform=" translate(-0.000005, -0.000005)" d="M -100.53476 -91.76259 C -100.53476 -96.60732 -57.53604000000001 -100.53476 -4.494430000000008 -100.53476 L 4.494439999999992 -100.53476 L 4.494439999999992 -100.53476 C 57.53604999999999 -100.53476 100.53477 -96.60733 100.53477 -91.76259 L 100.53477 91.7626 L 100.53477 91.7626 C 100.53477 96.60733 57.536049999999996 100.53477000000001 4.494439999999997 100.53477000000001 L -4.494430000000003 100.53477000000001 L -4.494430000000003 100.53477000000001 C -57.53604 100.53477000000001 -100.53476 96.60734000000001 -100.53476 91.7626 z" stroke-linecap="round" />
</g>
<g transform="matrix(0.2750315349 0 0 2.3691377561 254.1201847384 508.7229719159)" id="9udTMN5m1dm2QSWdwAIHA"  >
<path style="stroke: rgb(77,162,119); stroke-width: 0; stroke-dasharray: none; stroke-linecap: butt; stroke-dashoffset: 0; stroke-linejoin: miter; stroke-miterlimit: 4; fill: rgb(222,160,255); fill-rule: nonzero; opacity: 1;"  transform=" translate(0, -0.000005)" d="M -100.53476 -89.61804 C -100.53476 -95.64717999999999 -58.43285000000001 -100.53475999999999 -6.4975100000000054 -100.53475999999999 L 6.497509999999995 -100.53475999999999 L 6.497509999999995 -100.53475999999999 C 58.43284999999999 -100.53475999999999 100.53475999999999 -95.64717999999999 100.53475999999999 -89.61804 L 100.53475999999999 89.61805 L 100.53475999999999 89.61805 C 100.53475999999999 95.64719 58.432849999999995 100.53477 6.497509999999991 100.53477 L -6.497510000000009 100.53477 L -6.497510000000009 100.53477 C -58.43285 100.53477 -100.53476 95.64719 -100.53476 89.61805 z" stroke-linecap="round" />
</g>
<g transform="matrix(0.2750315349 0 0 1.3051220121 167.6502307512 496.8302106757)" id="_bkq3GCajcS_h2M97McZq"  >
<path style="stroke: rgb(77,162,119); stroke-width: 0; stroke-dasharray: none; stroke-linecap: butt; stroke-dashoffset: 0; stroke-linejoin: miter; stroke-miterlimit: 4; fill: rgb(222,160,255); fill-rule: nonzero; opacity: 1;"  transform=" translate(-0.000005, -0.000005)" d="M -100.53476 -80.67042 C -100.53476 -91.64119 -58.33164000000001 -100.53475999999999 -6.271440000000013 -100.53475999999999 L 6.271449999999987 -100.53475999999999 L 6.271449999999987 -100.53475999999999 C 58.331639999999986 -100.53475999999999 100.53476999999998 -91.64119 100.53476999999998 -80.67042 L 100.53476999999998 80.67043 L 100.53476999999998 80.67043 C 100.53476999999998 91.6412 58.33164999999998 100.53477 6.271449999999987 100.53477 L -6.271440000000013 100.53477 L -6.271440000000013 100.53477 C -58.33163000000001 100.53477 -100.53476 91.6412 -100.53476 80.67043 z" stroke-linecap="round" />
</g>
</svg>